<svg width="839" height="491" viewBox="0 0 839 491" fill="none" xmlns="http://www.w3.org/2000/svg">
<g clip-path="url(#clip0_640_35)">
<path d="M350.768 280.434H279.744V349.973H350.768V280.434Z" stroke="#231F20" stroke-width="2" stroke-miterlimit="10"/>
<path d="M350.768 280.434H279.744V349.973H350.768V280.434Z" stroke="#866957" stroke-width="2" stroke-miterlimit="10"/>
<path d="M490.612 349.973V420.311H350.768V349.973H403.777C406.33 352.848 408.962 355.653 411.669 358.378C414.427 361.164 417.268 363.871 420.18 366.494V366.756C420.227 366.709 420.278 366.667 420.324 366.629C423.138 364.096 425.877 361.487 428.547 358.808C431.402 355.943 434.179 353.002 436.867 349.973H490.612Z" stroke="#231F20" stroke-width="2" stroke-miterlimit="10"/>
<path d="M490.612 349.973V420.311H350.768V349.973H403.777C406.33 352.848 408.962 355.653 411.669 358.378C414.427 361.164 417.268 363.871 420.18 366.494V366.756C420.227 366.709 420.278 366.667 420.324 366.629C423.138 364.096 425.877 361.487 428.547 358.808C431.402 355.943 434.179 353.002 436.867 349.973H490.612Z" stroke="#866957" stroke-width="2" stroke-miterlimit="10"/>
<path d="M630.447 420.311H490.612V490.766H630.447V420.311Z" stroke="#231F20" stroke-width="2" stroke-miterlimit="10"/>
<path d="M630.447 420.311H490.612V490.766H630.447V420.311Z" stroke="#866957" stroke-width="2" stroke-miterlimit="10"/>
<path d="M698.592 350.104V420.311H630.442V349.973H698.466L698.592 350.104Z" stroke="#231F20" stroke-width="2" stroke-miterlimit="10"/>
<path d="M698.592 350.104V420.311H630.442V349.973H698.466L698.592 350.104Z" stroke="#866957" stroke-width="2" stroke-miterlimit="10"/>
<path d="M560.527 280.434H559.256" stroke="#231F20" stroke-width="2" stroke-miterlimit="10"/>
<path d="M560.527 280.434H559.256" stroke="#866957" stroke-width="2" stroke-miterlimit="10"/>
<path d="M559.256 280.434H490.612V349.973H559.256V280.434Z" stroke="#231F20" stroke-width="2" stroke-miterlimit="10"/>
<path d="M559.256 280.434H490.612V349.973H559.256V280.434Z" stroke="#866957" stroke-width="2" stroke-miterlimit="10"/>
<path d="M141.377 349.973H140.678" stroke="#231F20" stroke-width="2" stroke-miterlimit="10"/>
<path d="M141.377 349.973H140.678" stroke="#866957" stroke-width="2" stroke-miterlimit="10"/>
<path d="M280 491H211V491C233.079 491 256.193 491 280 491Z" stroke="#231F20" stroke-width="2" stroke-miterlimit="10"/>
<path d="M280 491H211V491C233.079 491 256.193 491 280 491Z" stroke="#866957" stroke-width="2" stroke-miterlimit="10"/>
<path d="M140.678 350.665V349.973" stroke="#231F20" stroke-width="2" stroke-miterlimit="10"/>
<path d="M140.678 350.665V349.973" stroke="#866957" stroke-width="2" stroke-miterlimit="10"/>
<path d="M769.374 280.433V279.909" stroke="#231F20" stroke-width="2" stroke-miterlimit="10"/>
<path d="M769.374 280.433V279.909" stroke="#866957" stroke-width="2" stroke-miterlimit="10"/>
<path d="M769.374 140.635V140.111" stroke="#231F20" stroke-width="2" stroke-miterlimit="10"/>
<path d="M769.374 140.635V140.111" stroke="#866957" stroke-width="2" stroke-miterlimit="10"/>
<path d="M281.421 210.272L279.754 208.608L279.744 208.599" stroke="#231F20" stroke-width="2" stroke-miterlimit="10"/>
<path d="M281.421 210.272L279.754 208.608L279.744 208.599" stroke="#866957" stroke-width="2" stroke-miterlimit="10"/>
<path d="M140.678 70.5719V349.972H71.2567V70.5719H0.23291V0.233398H70.8561L71.2567 0.621415L82.3394 11.6869L132.554 61.7644L140.408 69.6089L139.444 70.5719H140.678Z" stroke="#231F20" stroke-width="2" stroke-miterlimit="10"/>
<path d="M140.678 70.5719V349.972H71.2567V70.5719H0.23291V0.233398H70.8561L71.2567 0.621415L82.3394 11.6869L132.554 61.7644L140.408 69.6089L139.444 70.5719H140.678Z" stroke="#866957" stroke-width="2" stroke-miterlimit="10"/>
<path d="M350.768 419.493L349.953 420.311" stroke="#231F20" stroke-width="2" stroke-miterlimit="10"/>
<path d="M350.768 419.493L349.953 420.311" stroke="#866957" stroke-width="2" stroke-miterlimit="10"/>
<path d="M630.443 140.111V280.438H560.527C560.099 280.438 559.684 280.438 559.256 280.428V210.277L609.321 160.036L629.171 140.116H630.443V140.111Z" stroke="#231F20" stroke-width="2" stroke-miterlimit="10"/>
<path d="M630.443 140.111V280.438H560.527C560.099 280.438 559.684 280.438 559.256 280.428V210.277L609.321 160.036L629.171 140.116H630.443V140.111Z" stroke="#866957" stroke-width="2" stroke-miterlimit="10"/>
<path d="M838.767 0.233398V70.5719H769.373V140.111H768.852L769.373 140.635V279.909L768.852 280.433H769.373V349.972H698.592V70.5719H699.556L699.011 70.025L768.558 0.233398H838.767Z" stroke="#231F20" stroke-width="2" stroke-miterlimit="10"/>
<path d="M838.767 0.233398V70.5719H769.373V140.111H768.852L769.373 140.635V279.909L768.852 280.433H769.373V349.972H698.592V70.5719H699.556L699.011 70.025L768.558 0.233398H838.767Z" stroke="#866957" stroke-width="2" stroke-miterlimit="10"/>
<path d="M698.592 350.94L699.011 350.52L699.556 349.973" stroke="#231F20" stroke-width="2" stroke-miterlimit="10"/>
<path d="M698.592 350.94L699.011 350.52L699.556 349.973" stroke="#866957" stroke-width="2" stroke-miterlimit="10"/>
<path d="M630.443 419.329L629.464 420.311" stroke="#231F20" stroke-width="2" stroke-miterlimit="10"/>
<path d="M630.443 419.329L629.464 420.311" stroke="#866957" stroke-width="2" stroke-miterlimit="10"/>
<path d="M350.768 420.311V490.766H279.744C256.06 490.766 233.066 496.348 211.101 490.766V420.311H350.768Z" stroke="#231F20" stroke-width="2" stroke-miterlimit="10"/>
<path d="M350.768 420.311V490.766H279.744C256.06 490.766 233.066 496.348 211.101 490.766V420.311H350.768Z" stroke="#866957" stroke-width="2" stroke-miterlimit="10"/>
<path d="M211.101 421.881L209.536 420.311" stroke="#231F20" stroke-width="2" stroke-miterlimit="10"/>
<path d="M211.101 421.881L209.536 420.311" stroke="#866957" stroke-width="2" stroke-miterlimit="10"/>
<path d="M139.444 349.973L140.408 350.94L140.678 351.212" stroke="#231F20" stroke-width="2" stroke-miterlimit="10"/>
<path d="M139.444 349.973L140.408 350.94L140.678 351.212" stroke="#866957" stroke-width="2" stroke-miterlimit="10"/>
<path d="M490.612 421.461L489.466 420.311" stroke="#231F20" stroke-width="2" stroke-miterlimit="10"/>
<path d="M490.612 421.461L489.466 420.311" stroke="#866957" stroke-width="2" stroke-miterlimit="10"/>
<path d="M279.744 208.599V280.434H211.101V140.121L231.64 160.606L279.744 208.599Z" stroke="#231F20" stroke-width="2" stroke-miterlimit="10"/>
<path d="M279.744 208.599V280.434H211.101V140.121L231.64 160.606L279.744 208.599Z" stroke="#866957" stroke-width="2" stroke-miterlimit="10"/>
<path d="M281.421 210.272L279.754 211.937L279.744 211.951" stroke="#231F20" stroke-width="2" stroke-miterlimit="10"/>
<path d="M281.421 210.272L279.754 211.937L279.744 211.951" stroke="#866957" stroke-width="2" stroke-miterlimit="10"/>
<path d="M211.101 349.973V420.311H140.678V350.665L141.377 349.973H211.101Z" stroke="#231F20" stroke-width="2" stroke-miterlimit="10"/>
<path d="M211.101 349.973V420.311H140.678V350.665L141.377 349.973H211.101Z" stroke="#866957" stroke-width="2" stroke-miterlimit="10"/>
</g>
<defs>
<clipPath id="clip0_640_35">
<rect width="839" height="491" fill="white"/>
</clipPath>
</defs>
</svg>
